<svg xmlns="http://www.w3.org/2000/svg" viewBox="0 0 579.77 245.3"><defs><style>.cls-1{font-size:40px;}.cls-1,.cls-3{fill:#b8ceda;font-family:NotoSans-Bold, Noto Sans;font-weight:700;}.cls-2{letter-spacing:-0.01em;}.cls-3{font-size:25px;}.cls-4{fill:#292f71;}</style></defs><g id="Слой_2" data-name="Слой 2"><g id="Слой_1-2" data-name="Слой 1"><text class="cls-1" transform="translate(50.8 85.56)">Юридический кабинет <tspan x="63.22" y="48">АННЫ В</tspan><tspan class="cls-2" x="225.53" y="48">О</tspan><tspan x="256.97" y="48">ЛГИНОЙ</tspan></text><text/><text class="cls-3" transform="translate(199.12 194.35)">Du<tspan class="cls-2" x="34.94" y="0">r</tspan><tspan x="46.04" y="0">a l</tspan><tspan class="cls-2" x="75.27" y="0">e</tspan><tspan x="89.79" y="0">x, sed l</tspan><tspan class="cls-2" x="175.13" y="0">e</tspan><tspan x="189.66" y="0">x</tspan></text><path class="cls-4" d="M144,0A143.49,143.49,0,0,0,48.77,36,139.92,139.92,0,0,0,36,48.77,143.42,143.42,0,0,0,0,144V0Z"/><path class="cls-4" d="M435.77,205.76a143.42,143.42,0,0,0,95.23-36A138.66,138.66,0,0,0,543.77,157a143.42,143.42,0,0,0,36-95.23v144Z"/></g></g></svg>